<svg width="176" height="37" viewBox="0 0 176 37" fill="none" xmlns="http://www.w3.org/2000/svg">
<path fill-rule="evenodd" clip-rule="evenodd" d="M124.062 18.0071C124.062 19.6579 122.362 21.8423 118.701 22.955C117.267 23.3909 115.553 23.6846 113.493 23.6846C111.21 23.6846 109.332 23.3388 107.796 22.8282C104.442 21.7143 102.81 19.6867 102.81 17.8535V17.774C102.81 16.136 104.652 13.5346 108.706 12.3402C110.024 11.9522 111.582 11.6846 113.379 11.6846C115.47 11.6846 117.252 12.0247 118.739 12.5325C122.247 13.7303 124.061 15.9987 124.061 17.9275V18.0071H124.062ZM120.477 12.0109C118.635 11.2219 116.342 10.659 113.372 10.659C110.362 10.659 108.153 11.2641 106.386 12.025C102.915 13.5185 101.59 15.8469 101.59 17.8708V17.9595C101.59 20.948 105.397 25.3256 113.5 25.3256C121.663 25.3256 125.282 20.7001 125.282 18.1308V18.0419C125.282 17.1282 125.181 16.3695 124.738 15.5573C123.983 14.1765 122.472 12.8654 120.477 12.0109V12.0109Z" fill="white"/>
<path fill-rule="evenodd" clip-rule="evenodd" d="M120.467 24.9486C119.884 26.0854 117.45 26.1749 113.925 23.981C110.88 22.0861 108.843 19.1942 108.693 19.011C108.543 18.8278 104.722 13.6412 105.873 10.5497C106.256 9.52304 107.538 9.22067 108.9 9.56318C110.813 10.0445 113.534 11.3869 116.523 14.6137C116.523 14.6137 119.583 17.6389 120.561 21.59C120.562 21.5893 121.174 23.5718 120.467 24.9486M122.497 22.6448C121.203 17.8492 116.464 13.2339 116.464 13.2339C113.592 10.3412 110.637 8.53412 108.198 8.31883C106.757 8.19175 105.391 8.69639 104.821 10.1682C104.36 11.3612 104.527 12.6431 104.867 13.8989C105.62 16.676 107.543 19.1882 107.657 19.3555C108.044 19.9201 110.294 23.0932 113.804 25.6661C117.964 28.7142 120.673 28.458 122.075 26.6685C123.262 25.1529 122.497 22.6448 122.497 22.6448" fill="white"/>
<path fill-rule="evenodd" clip-rule="evenodd" d="M106.31 21.593C107.291 17.6449 110.357 14.6221 110.357 14.6221C112.695 12.1068 114.869 10.7021 116.623 9.99373C117.117 9.7938 117.565 9.66632 117.986 9.56073C119.352 9.21849 120.613 9.53464 120.997 10.5605C122.151 13.6496 118.356 18.8327 118.206 19.0158C118.055 19.199 116.014 22.0887 112.962 23.9822C109.429 26.1742 106.989 26.0855 106.405 24.949C105.697 23.5738 106.31 21.593 106.31 21.593M104.797 26.6686C106.201 28.4579 108.915 28.7143 113.081 25.6662C116.596 23.0933 118.813 19.9138 119.2 19.3492C119.284 19.2256 120.331 17.8371 121.199 16.0061C121.511 15.3474 121.788 14.6126 121.987 13.8778C122.328 12.622 122.523 11.3577 122.061 10.1648C121.491 8.69299 120.138 8.19185 118.695 8.31893C116.253 8.53422 113.293 10.3413 110.417 13.234C110.417 13.234 105.671 17.8491 104.375 22.6449C104.375 22.6455 103.608 25.1537 104.797 26.6686" fill="white"/>
<path fill-rule="evenodd" clip-rule="evenodd" d="M158.82 22.1418H154.168V19.3639H158.256V17.2231H154.168H151.436V24.3H158.82V22.1418Z" fill="white"/>
<path fill-rule="evenodd" clip-rule="evenodd" d="M158.82 12.3H151.436V14.4538H154.194H158.82V12.3Z" fill="white"/>
<path fill-rule="evenodd" clip-rule="evenodd" d="M132.667 12.3H136.805C138.137 12.3 139.213 12.6739 140.034 13.4218C140.866 14.1694 141.282 15.1189 141.282 16.2702C141.282 17.5877 140.848 18.6085 139.98 19.3325C139.124 20.0566 138.065 20.4187 136.805 20.4187H135.414V24.3H132.667V12.3ZM135.436 18.1461H136.343C137.79 18.1461 138.513 17.4986 138.513 16.2037C138.513 15.0374 137.843 14.4538 136.503 14.4538H135.436V18.1461Z" fill="white"/>
<path fill-rule="evenodd" clip-rule="evenodd" d="M94.8205 12.3V14.5033H91.9008V24.3H89.1421V14.5033H86.2051V12.3H94.8205Z" fill="white"/>
<path fill-rule="evenodd" clip-rule="evenodd" d="M68.5329 15.4575C68.0067 16.1146 67.7437 17.0109 67.7437 18.146C67.7437 19.2814 68.0067 20.1836 68.5329 20.8529C69.0589 21.5101 69.7701 21.8385 70.6671 21.8385C71.5638 21.8385 72.2746 21.5101 72.8009 20.8529C73.3269 20.1836 73.5898 19.2814 73.5898 18.146C73.5898 17.0109 73.3269 16.1146 72.8009 15.4575C72.2746 14.7882 71.5638 14.4539 70.6671 14.4539C69.7701 14.4539 69.0589 14.7882 68.5329 15.4575ZM64.6667 18.146C64.6667 16.3082 65.1954 14.8263 66.253 13.6997C67.3226 12.5613 68.7422 11.9923 70.5131 11.9923C72.2951 11.9923 73.7153 12.5555 74.7729 13.6821C75.8301 14.8083 76.3591 16.2964 76.3591 18.146C76.3591 19.9838 75.8242 21.4722 74.7545 22.6103C73.697 23.7369 72.2833 24.3 70.5131 24.3C68.7307 24.3 67.3105 23.7369 66.253 22.6103C65.1954 21.484 64.6667 19.9959 64.6667 18.146Z" fill="white"/>
<path fill-rule="evenodd" clip-rule="evenodd" d="M47.8179 18.211L44.2281 12.3H47.3935L49.3741 15.8076C49.6097 15.3682 49.9457 14.7512 50.3822 13.9558C50.8183 13.1487 51.1127 12.5967 51.2664 12.3H54.5911L50.983 18.2287L54.8205 24.3H51.5845L49.4271 20.5611C49.1678 21.0476 48.7905 21.7301 48.2953 22.6085C47.8003 23.4749 47.4819 24.0386 47.3405 24.3H44.0513L47.8179 18.211Z" fill="white"/>
<path fill-rule="evenodd" clip-rule="evenodd" d="M30.5127 24.3H33.2819V12.3H30.5127V24.3Z" fill="white"/>
<path fill-rule="evenodd" clip-rule="evenodd" d="M15.708 18.2465H14.7984H12.0513V24.3H14.7984V20.4186H16.1895C17.4501 20.4186 18.5085 20.0568 19.3647 19.3327C20.2327 18.6084 20.6667 17.5879 20.6667 16.2703C20.6667 15.119 20.2507 14.1695 19.4181 13.4216C18.5977 12.6736 17.5213 12.3 16.1895 12.3H12.0513V14.4898H14.7984H15.8686C17.2122 14.4898 17.8841 15.0833 17.8841 16.2703C17.8841 17.5879 17.1587 18.2465 15.708 18.2465Z" fill="white"/>
</svg>
